<svg xmlns="http://www.w3.org/2000/svg" viewBox="0 0 64 64" role="img" aria-label="Sammy duck icon">
  <rect width="64" height="64" rx="16" fill="#1f2a44"/>
  <path
    d="M19.3 34.5c-4.1-2.2-7.4-1.2-9.1 1.5-1.4 2.4-.6 5.1 1.6 6.3 2.1 1.2 4.7.5 5.7-1.5.8-1.5.4-3.1-.6-4.1"
    fill="none"
    stroke="#684d38"
    stroke-width="5.5"
    stroke-linecap="round"
    stroke-linejoin="round"
  />
  <path
    d="M19.2 35c.5-11.9 9.5-20.6 21.4-20.6 10.5 0 18.6 8 18.6 19 0 12.3-8.7 21.2-21.6 21.2-11.5 0-18.4-7.2-18.4-19.6Z"
    fill="#f4c95d"
    stroke="#684d38"
    stroke-width="5.5"
    stroke-linejoin="round"
  />
  <path d="M40.5 33.2c2.2-1.8 6.7-1.8 9.2 0-1.9 2.8-7.1 2.8-9.2 0Z" fill="#f47b2b"/>
  <circle cx="31" cy="29.2" r="2.2" fill="#684d38"/>
  <circle cx="51.4" cy="29.2" r="2.2" fill="#684d38"/>
  <path
    d="M28 54.5c-1.5 4-5.8 4-7.2 0M45.5 54.5c-1.5 4-5.8 4-7.2 0"
    fill="none"
    stroke="#f47b2b"
    stroke-width="6"
    stroke-linecap="round"
  />
</svg>
